<?xml version="1.0" standalone="no"?>
<!DOCTYPE svg PUBLIC "-//W3C//DTD SVG 1.1//EN" "http://www.w3.org/Graphics/SVG/1.1/DTD/svg11.dtd" >
<svg>
<metadata>
Created by FontForge 20110222 at Wed May 27 00:43:53 2015
 By www-data
 (C) Copyright 1989, 1990, 1998, 2002 The Monotype Corporation PLC. All Rights Reserved. 
</metadata>
<defs>
<font id="GillSansStd-Italic" horiz-adv-x="469" >
  <font-face 
    font-family="Gill Sans Std"
    font-weight="400"
    font-style="italic"
    font-stretch="normal"
    units-per-em="1000"
    panose-1="2 11 5 2 2 1 4 9 2 3"
    ascent="682"
    descent="-318"
    x-height="449"
    cap-height="682"
    bbox="-201 -250 1009 909"
    underline-thickness="50"
    underline-position="-50"
    slope="-8"
    stemh="70"
    stemv="87"
    unicode-range="U+0020-FB02"
  />
<missing-glyph horiz-adv-x="565" 
d="M65 0v700h500v-700h-500zM315 395l170 255h-340zM345 350l170 -255v510zM145 50h340l-170 255zM115 605v-510l170 255z" />
    <glyph glyph-name="f_i" unicode="fi" horiz-adv-x="479" 
d="M299 449l-11 -75h-95l-84 -563h-83l83 563h-66l11 75h65c20 151 71 242 204 242c90 0 146 -55 145 -127h-81c-6 33 -32 54 -67 54c-85 0 -100 -60 -117 -169h96zM454 449l-66 -449h-85l66 449h85z" />
    <glyph glyph-name="f_l" unicode="fl" horiz-adv-x="479" 
d="M302 449l-14 -75h-94l-85 -563h-83l83 563h-65l11 75h64c23 170 82 242 198 242c21 0 29 -1 49 -9l-10 -69c-10 3 -25 5 -38 5c-82 0 -106 -83 -114 -169h98zM488 682l-101 -682h-85l101 682h85z" />
    <glyph glyph-name=".notdef" horiz-adv-x="565" 
d="M65 0v700h500v-700h-500zM315 395l170 255h-340zM345 350l170 -255v510zM145 50h340l-170 255zM115 605v-510l170 255z" />
    <glyph glyph-name="space" unicode=" " horiz-adv-x="278" 
 />
    <glyph glyph-name="exclam" unicode="!" horiz-adv-x="250" 
d="M131 166h-37c16 141 22 311 28 414c5 80 21 111 66 111c26 0 40 -22 40 -59c0 -51 -51 -247 -97 -466zM100 102c32 0 58 -26 58 -58s-26 -58 -58 -58s-58 26 -58 58s26 58 58 58z" />
    <glyph glyph-name="quotedbl" unicode="&#x22;" horiz-adv-x="354" 
d="M248 716h96v-117l-23 -137h-50l-23 137v117zM86 716h96v-117l-23 -137h-50l-23 137v117z" />
    <glyph glyph-name="numbersign" unicode="#" horiz-adv-x="584" 
d="M195 617h72l-41 -195h194l41 195h72l-41 -195h91v-69h-105l-36 -170h141v-69h-155l-41 -195h-72l41 195h-194l-41 -195h-72l41 195h-90v69h104l36 170h-140v69h154zM212 353l-36 -170h194l36 170h-194z" />
    <glyph glyph-name="dollar" unicode="$" horiz-adv-x="500" 
d="M483 604l-13 -90c-40 26 -84 44 -130 53l-30 -214c89 -48 152 -100 152 -186c0 -89 -78 -169 -203 -176l-14 -101h-74l14 101c-57 8 -106 26 -145 54l14 98c43 -28 72 -44 144 -64l29 214c-99 56 -150 107 -150 185c0 94 85 167 201 173l5 40h74l-5 -40
c54 -7 88 -21 131 -47zM242 395l24 175c-60 -9 -99 -40 -99 -81c0 -37 18 -60 75 -94zM296 254l-26 -181c59 5 103 42 103 86c0 35 -27 68 -77 95z" />
    <glyph glyph-name="percent" unicode="%" horiz-adv-x="708" 
d="M289 539c0 45 -36 79 -79 79c-44 0 -79 -33 -79 -79c0 -41 37 -79 79 -79c45 0 79 37 79 79zM362 539c0 -82 -70 -152 -152 -152c-86 0 -152 71 -152 152c0 86 66 152 152 152c83 0 152 -66 152 -152zM631 691l-448 -700h-76l449 700h75zM607 144c0 45 -36 79 -79 79
c-44 0 -79 -33 -79 -79c0 -41 37 -79 79 -79c45 0 79 37 79 79zM680 144c0 -82 -70 -152 -152 -152c-86 0 -152 71 -152 152c0 86 66 152 152 152c83 0 152 -66 152 -152z" />
    <glyph glyph-name="ampersand" unicode="&#x26;" horiz-adv-x="688" 
d="M565 343h88c-20 -51 -73 -162 -139 -224c59 -56 109 -56 123 -56c7 0 14 0 22 3l-33 -71c-6 -3 -15 -4 -24 -4c-45 0 -109 33 -146 75c-64 -47 -128 -75 -211 -75c-131 0 -194 90 -194 191c0 80 63 160 159 202c-21 41 -38 90 -38 144c0 92 69 163 159 163
c74 0 133 -61 133 -139c0 -73 -45 -140 -145 -196c22 -41 88 -128 137 -184c54 54 88 117 109 171zM377 547c0 40 -24 68 -59 68c-36 0 -65 -39 -65 -90c0 -32 7 -57 28 -102c58 29 96 78 96 124zM143 181c0 -68 51 -116 123 -116c39 0 84 18 132 53
c-43 48 -117 143 -149 196c-70 -39 -106 -85 -106 -133z" />
    <glyph glyph-name="quoteright" unicode="&#x2019;" horiz-adv-x="198" 
d="M60 451l6 44c45 15 66 42 66 86c-25 11 -39 28 -39 51c0 35 26 59 63 59c36 0 63 -34 63 -79c0 -76 -64 -140 -159 -161z" />
    <glyph glyph-name="parenleft" unicode="(" horiz-adv-x="292" 
d="M286 691h48c-49 -61 -90 -140 -133 -239c-36 -82 -67 -268 -67 -372c0 -113 22 -223 62 -310h-42c-51 95 -101 249 -101 382c0 214 102 377 233 539z" />
    <glyph glyph-name="parenright" unicode=")" horiz-adv-x="292" 
d="M-7 -230h-48c49 61 90 140 133 239c36 82 67 268 67 372c0 113 -22 223 -62 310h42c51 -95 101 -249 101 -382c0 -214 -102 -377 -233 -539z" />
    <glyph glyph-name="asterisk" unicode="*" horiz-adv-x="448" 
d="M291 665l-25 -127c6 -1 16 -5 20 -10l84 80c16 16 34 25 46 25c18 0 32 -15 32 -36c0 -16 -9 -31 -32 -39l-124 -45c2 -6 3 -16 0 -23l101 -37c38 -14 55 -29 55 -50c0 -15 -16 -33 -32 -33c-15 0 -35 12 -58 35l-72 71c-6 -6 -13 -10 -20 -10l23 -123
c7 -36 -3 -65 -31 -65c-30 0 -40 33 -31 75l24 113c-8 1 -10 2 -19 10l-78 -72c-22 -20 -37 -33 -58 -33c-15 0 -30 16 -30 33c0 27 26 40 54 50l105 36c-2 8 -2 17 0 23l-113 42c-28 10 -44 25 -44 40c0 22 16 39 35 39c13 0 26 -10 47 -29l82 -77c2 4 11 9 19 10l-23 119
c-7 36 -2 69 30 69c30 0 39 -29 33 -61z" />
    <glyph glyph-name="plus" unicode="+" horiz-adv-x="584" 
d="M266 589h82v-195h195v-82h-195v-195h-82v195h-195v82h195v195z" />
    <glyph glyph-name="comma" unicode="," horiz-adv-x="198" 
d="M-24 -144l6 44c45 15 66 42 66 86c-25 11 -39 28 -39 51c0 35 26 59 63 59c36 0 63 -34 63 -79c0 -76 -64 -140 -159 -161z" />
    <glyph glyph-name="hyphen" unicode="-" horiz-adv-x="250" 
d="M250 265l-12 -85h-238l12 85h238z" />
    <glyph glyph-name="period" unicode="." horiz-adv-x="198" 
d="M74 102c32 0 58 -26 58 -58s-26 -58 -58 -58s-58 26 -58 58s26 58 58 58z" />
    <glyph glyph-name="slash" unicode="/" horiz-adv-x="281" 
d="M28 -9l196 700h70l-196 -700h-70z" />
    <glyph glyph-name="zero" unicode="0" horiz-adv-x="521" 
d="M501 444c0 -201 -88 -453 -270 -453c-118 0 -180 80 -180 243c0 151 66 457 275 457c104 0 175 -74 175 -247zM409 455c0 101 -28 155 -87 155c-88 0 -177 -190 -177 -374c0 -105 29 -164 85 -164c92 0 179 187 179 383z" />
    <glyph glyph-name="one" unicode="1" horiz-adv-x="521" 
d="M374 691l-108 -691h-90l109 691h89z" />
    <glyph glyph-name="two" unicode="2" horiz-adv-x="521" 
d="M119 547l13 97c56 33 100 47 154 47c99 0 165 -65 165 -163c0 -95 -73 -210 -268 -444h260l-12 -84h-414c275 336 347 454 347 521c0 53 -36 85 -96 85c-45 0 -96 -20 -149 -59z" />
    <glyph glyph-name="three" unicode="3" horiz-adv-x="521" 
d="M129 567l13 94c46 20 94 30 141 30c111 0 183 -70 183 -177c0 -75 -46 -131 -133 -163c61 -26 92 -77 92 -154s-58 -206 -237 -206c-63 0 -120 18 -164 38l12 81c45 -22 87 -38 148 -38c88 0 147 50 147 125c0 83 -69 119 -124 114l11 81c105 7 154 68 154 121
c0 58 -42 97 -107 97c-45 0 -95 -16 -136 -43z" />
    <glyph glyph-name="four" unicode="4" horiz-adv-x="521" 
d="M455 691l-63 -408h98l-10 -73h-101l-33 -210h-87l36 210h-256v39l362 442h54zM343 515l-189 -232h152l39 230z" />
    <glyph glyph-name="five" unicode="5" horiz-adv-x="521" 
d="M477 682l-15 -84h-196l-27 -170c120 -6 195 -82 195 -198c0 -141 -105 -239 -256 -239c-64 0 -118 17 -163 51l31 79c45 -34 86 -49 137 -49c92 0 157 65 157 157c0 72 -55 118 -142 118c-20 0 -32 -2 -60 -8l61 343h278z" />
    <glyph glyph-name="six" unicode="6" horiz-adv-x="521" 
d="M414 682l-196 -286l2 -2c21 16 50 23 88 23c98 0 161 -67 161 -171c0 -133 -112 -255 -235 -255c-112 0 -180 79 -180 208c0 68 42 163 94 240l166 243h100zM380 239c0 57 -38 97 -92 97c-79 0 -145 -68 -145 -147c0 -66 38 -113 93 -113c74 0 144 76 144 163z" />
    <glyph glyph-name="seven" unicode="7" horiz-adv-x="521" 
d="M528 682l-319 -691h-93l280 607h-275l12 84h395z" />
    <glyph glyph-name="eight" unicode="8" horiz-adv-x="521" 
d="M376 356c62 -27 90 -73 90 -145c0 -124 -102 -220 -234 -220c-115 0 -192 76 -192 189c0 92 53 160 146 187c-55 34 -77 72 -77 134c0 104 90 190 198 190c112 0 185 -69 185 -175c0 -73 -44 -134 -116 -160zM403 515c0 56 -38 95 -93 95c-62 0 -112 -52 -112 -115
c0 -57 37 -96 93 -96c61 0 112 53 112 116zM377 209c0 67 -42 109 -113 109c-73 0 -135 -65 -135 -139c0 -62 46 -107 109 -107c76 0 139 62 139 137z" />
    <glyph glyph-name="nine" unicode="9" horiz-adv-x="521" 
d="M129 -9l202 294l-2 2c-30 -17 -54 -24 -87 -24c-96 0 -164 68 -164 162c0 144 110 266 239 266c103 0 177 -83 177 -199c0 -71 -18 -141 -97 -256l-168 -245h-100zM402 488c0 70 -36 115 -93 115c-74 0 -139 -76 -139 -162c0 -62 33 -97 94 -97c71 0 138 71 138 144z" />
    <glyph glyph-name="colon" unicode=":" horiz-adv-x="198" 
d="M130 463c32 0 58 -26 58 -58s-26 -58 -58 -58s-58 26 -58 58s26 58 58 58zM74 102c32 0 58 -26 58 -58s-26 -58 -58 -58s-58 26 -58 58s26 58 58 58z" />
    <glyph glyph-name="semicolon" unicode=";" horiz-adv-x="198" 
d="M-10 -144l6 44c45 15 66 42 66 86c-25 11 -39 28 -39 51c0 35 26 59 63 59c36 0 63 -34 63 -79c0 -76 -64 -140 -159 -161zM130 463c32 0 58 -26 58 -58s-26 -58 -58 -58s-58 26 -58 58s26 58 58 58z" />
    <glyph glyph-name="less" unicode="&#x3c;" horiz-adv-x="584" 
d="M70 313v82l474 202v-87l-376 -156l376 -156v-87z" />
    <glyph glyph-name="equal" unicode="=" horiz-adv-x="584" 
d="M71 503h472v-82h-472v82zM71 285h472v-82h-472v82z" />
    <glyph glyph-name="greater" unicode="&#x3e;" horiz-adv-x="584" 
d="M544 313l-474 -202v87l376 156l-376 156v87l474 -202v-82z" />
    <glyph glyph-name="question" unicode="?" horiz-adv-x="354" 
d="M88 554l14 99c43 27 74 38 112 38c88 0 146 -61 146 -154c0 -145 -178 -186 -203 -371h-55c0 212 171 277 171 369c0 44 -28 75 -74 75c-31 0 -72 -20 -111 -56zM118 102c32 0 58 -26 58 -58s-26 -58 -58 -58s-58 26 -58 58s26 58 58 58z" />
    <glyph glyph-name="at" unicode="@" horiz-adv-x="1010" 
d="M891 9h90c-87 -143 -230 -219 -433 -219c-307 0 -494 166 -494 439c0 211 131 500 483 500c243 0 419 -160 419 -381c0 -178 -143 -350 -292 -350c-64 0 -97 27 -97 82c-44 -51 -99 -81 -148 -81c-103 0 -179 93 -179 221c0 156 126 309 254 309c60 0 112 -32 147 -90
l17 76h88l-82 -377c-8 -36 2 -60 32 -60c40 0 187 90 187 271c0 177 -149 309 -350 309c-234 0 -406 -179 -406 -421c0 -237 155 -375 422 -375c167 0 283 63 342 147zM332 213c0 -85 43 -143 107 -143c87 0 174 123 174 246c0 87 -44 143 -113 143
c-86 0 -168 -121 -168 -246z" />
    <glyph glyph-name="A" unicode="A" horiz-adv-x="521" 
d="M352 686l133 -686h-84l-41 214h-214l-90 -214h-91l301 686h86zM292 566l-116 -280h170l-52 280h-2z" />
    <glyph glyph-name="B" unicode="B" horiz-adv-x="510" 
d="M134 682h100c158 0 216 -81 216 -173c0 -58 -32 -105 -94 -135c93 -32 141 -94 141 -183c0 -116 -103 -191 -246 -191h-212zM213 604l-27 -195h49c75 0 123 41 123 102c0 63 -41 102 -145 93zM175 333l-36 -257h103c104 0 163 42 163 119c0 80 -77 138 -164 138h-66z" />
    <glyph glyph-name="C" unicode="C" horiz-adv-x="552" 
d="M580 691l-18 -86h-50c-283 0 -366 -194 -366 -324c0 -124 70 -204 179 -204c58 0 143 35 204 84l-15 -110c-68 -39 -140 -60 -202 -60c-155 0 -263 117 -263 284c0 238 176 416 466 416h65z" />
    <glyph glyph-name="D" unicode="D" horiz-adv-x="656" 
d="M216 600l-73 -519h82c127 0 177 20 225 66c39 37 70 109 70 196c0 191 -164 257 -273 257h-31zM39 0l97 682h81c134 0 244 -36 314 -109c57 -59 86 -137 86 -233c0 -177 -100 -340 -356 -340h-222z" />
    <glyph glyph-name="E" unicode="E" horiz-adv-x="510" 
d="M498 682l-11 -81h-273l-30 -214h241l-11 -81h-242l-33 -225h359l-12 -81h-448l99 682h361z" />
    <glyph glyph-name="F" unicode="F" horiz-adv-x="417" 
d="M455 682l-11 -81h-237l-30 -214h218l-12 -81h-218l-43 -306h-91l99 682h325z" />
    <glyph glyph-name="G" unicode="G" horiz-adv-x="604" 
d="M577 296l-35 -245c-67 -35 -129 -60 -220 -60c-193 0 -287 149 -287 300c0 158 110 400 468 400c27 0 60 -2 118 -9l-11 -82c-64 7 -89 9 -121 9c-261 0 -357 -184 -357 -315s81 -221 197 -221c39 0 90 12 131 33l16 118h-97l10 72h188z" />
    <glyph glyph-name="H" unicode="H" horiz-adv-x="698" 
d="M687 682l-96 -682h-94l43 302h-369l-42 -302h-94l96 682h93l-41 -295h369l41 295h94z" />
    <glyph glyph-name="I" unicode="I" horiz-adv-x="240" 
d="M229 682l-96 -682h-94l96 682h94z" />
    <glyph glyph-name="J" unicode="J" horiz-adv-x="240" 
d="M232 682l-103 -732c-16 -114 -71 -180 -176 -180c-21 0 -43 2 -65 6l-21 84c28 -6 46 -8 66 -8c65 0 96 29 107 104l102 726h90z" />
    <glyph glyph-name="K" unicode="K" horiz-adv-x="563" 
d="M573 682l-314 -315l305 -367h-107l-281 357l-50 -357h-92l96 682h92l-45 -292l2 -2l290 294h104z" />
    <glyph glyph-name="L" unicode="L" horiz-adv-x="417" 
d="M221 682l-89 -606h280l-11 -76h-366l96 682h90z" />
    <glyph glyph-name="M" unicode="M" horiz-adv-x="813" 
d="M743 682v-682h-90v517h-2l-274 -517l-118 522h-2l-168 -522h-90l225 682h78l106 -462l245 462h90z" />
    <glyph glyph-name="N" unicode="N" horiz-adv-x="688" 
d="M678 682l-96 -682h-49l-339 498l-70 -498h-85l96 682h46l341 -502l71 502h85z" />
    <glyph glyph-name="O" unicode="O" horiz-adv-x="656" 
d="M623 405c0 -245 -154 -414 -329 -414c-143 0 -243 119 -243 288c0 179 113 412 331 412c145 0 241 -116 241 -286zM531 421c0 120 -60 188 -150 188c-161 0 -238 -197 -238 -343c0 -120 60 -193 153 -193c127 0 235 155 235 348z" />
    <glyph glyph-name="P" unicode="P" horiz-adv-x="448" 
d="M123 682h117c106 0 221 -39 221 -193c0 -76 -53 -201 -218 -201h-82l-40 -288h-94zM205 601l-32 -232h66c94 0 130 66 130 123c0 55 -33 109 -124 109h-40z" />
    <glyph glyph-name="Q" unicode="Q" horiz-adv-x="656" 
d="M623 -15h15c-4 -85 -50 -180 -164 -180c-87 0 -182 52 -226 195c-125 25 -197 136 -197 291c0 166 112 400 328 400c151 0 244 -108 244 -287c0 -206 -108 -364 -274 -404c22 -73 82 -113 144 -113c42 0 105 26 130 98zM531 416c0 126 -57 193 -149 193
c-174 0 -239 -222 -239 -340c0 -126 60 -187 159 -187c124 0 229 144 229 334z" />
    <glyph glyph-name="R" unicode="R" horiz-adv-x="531" 
d="M132 682h123c88 0 137 -13 176 -48c37 -34 56 -80 56 -137c0 -82 -54 -145 -140 -167c21 -13 42 -43 57 -75l122 -255h-98l-78 162c-56 117 -80 139 -142 139h-36l-42 -301h-94zM214 601l-30 -219h48c125 0 158 65 158 120c0 64 -42 99 -123 99h-53z" />
    <glyph glyph-name="S" unicode="S" horiz-adv-x="458" 
d="M439 664l-13 -93c-42 27 -78 36 -120 36c-73 0 -120 -41 -120 -103c0 -110 231 -156 231 -333c0 -85 -66 -180 -202 -180c-45 0 -106 14 -165 49l14 100c72 -50 119 -65 160 -65c35 0 101 24 101 88c0 121 -231 163 -231 342c0 112 108 186 220 186c28 0 79 -7 125 -27z
" />
    <glyph glyph-name="T" unicode="T" horiz-adv-x="510" 
d="M557 682l-12 -85h-192l-84 -597h-94l84 597h-192l12 85h478z" />
    <glyph glyph-name="U" unicode="U" horiz-adv-x="635" 
d="M637 682l-59 -421c-26 -186 -132 -270 -284 -270c-156 0 -252 100 -231 252l62 439h90l-63 -446c-15 -109 58 -163 147 -163c48 0 97 17 131 51c35 35 47 84 58 166l55 392h94z" />
    <glyph glyph-name="V" unicode="V" horiz-adv-x="510" 
d="M565 682l-333 -688h-35l-133 688h88l89 -476h2l228 476h94z" />
    <glyph glyph-name="W" unicode="W" horiz-adv-x="927" 
d="M986 682l-330 -688h-35l-132 484l-232 -484h-36l-161 688h86l111 -483h2l230 483h35l133 -491l234 491h95z" />
    <glyph glyph-name="X" unicode="X" horiz-adv-x="667" 
d="M703 682l-292 -331l222 -351h-107l-177 281l-244 -281h-123l317 361l-202 321h103l162 -251l222 251h119z" />
    <glyph glyph-name="Y" unicode="Y" horiz-adv-x="490" 
d="M557 682l-239 -342l-48 -340h-90l48 340l-160 342h95l116 -250l174 250h104z" />
    <glyph glyph-name="Z" unicode="Z" horiz-adv-x="583" 
d="M647 682l-497 -597h404l-12 -85h-574l495 597h-388l12 85h560z" />
    <glyph glyph-name="bracketleft" unicode="[" horiz-adv-x="333" 
d="M376 682l-9 -66h-129l-108 -771h128l-9 -66h-211l127 903h211z" />
    <glyph glyph-name="backslash" unicode="\" horiz-adv-x="281" 
d="M279 -9h-70l-196 700h70z" />
    <glyph glyph-name="bracketright" unicode="]" horiz-adv-x="333" 
d="M-48 -221l9 66h129l108 771h-128l9 66h211l-127 -903h-211z" />
    <glyph glyph-name="asciicircum" unicode="^" 
d="M133 291h-90l173 391h71l173 -391h-89l-120 292z" />
    <glyph glyph-name="underscore" unicode="_" horiz-adv-x="500" 
d="M-6 -75h512v-50h-512v50z" />
    <glyph glyph-name="quoteleft" unicode="&#x2018;" horiz-adv-x="198" 
d="M236 690l-6 -44c-45 -15 -66 -42 -66 -86c25 -11 39 -28 39 -51c0 -35 -26 -59 -63 -59c-36 0 -63 34 -63 79c0 76 64 140 159 161z" />
    <glyph glyph-name="a" unicode="a" 
d="M446 449l-63 -449h-85l8 52l-2 2c-35 -38 -78 -63 -121 -63c-83 0 -148 80 -148 178c0 143 86 294 305 294c32 0 81 -6 106 -14zM316 130l37 259c-194 16 -231 -145 -231 -205c0 -72 37 -123 89 -123c34 0 79 34 105 69z" />
    <glyph glyph-name="b" unicode="b" 
d="M210 682l-38 -267l2 -2c37 37 67 50 109 50c94 0 158 -84 158 -205c0 -120 -66 -272 -292 -272c-43 0 -93 3 -119 7l93 689h87zM122 56h47c118 0 185 83 185 204c0 82 -37 129 -97 129c-28 0 -90 -19 -96 -57z" />
    <glyph glyph-name="c" unicode="c" horiz-adv-x="385" 
d="M357 100l-10 -82c-43 -23 -79 -32 -125 -32c-121 0 -198 81 -198 207c0 146 114 270 291 270c23 0 49 -3 77 -8l-11 -75c-23 5 -44 7 -65 7c-125 0 -205 -94 -205 -189c0 -85 47 -136 123 -136c45 0 81 13 123 38z" />
    <glyph glyph-name="d" unicode="d" 
d="M478 682l-96 -682c-36 -10 -71 -14 -115 -14c-151 0 -236 74 -236 208c0 96 81 269 295 269h36l31 219h85zM306 58l46 334h-22c-139 0 -212 -100 -212 -196c0 -89 53 -140 149 -140c13 0 25 0 39 2z" />
    <glyph glyph-name="e" unicode="e" horiz-adv-x="438" 
d="M388 117l-12 -81c-45 -33 -96 -50 -150 -50c-114 0 -188 86 -188 217c0 147 93 260 213 260c100 0 175 -93 156 -230h-280c-21 -120 45 -177 115 -177c42 0 90 20 146 61zM140 292h188c0 57 -25 101 -81 101c-50 0 -84 -33 -107 -101z" />
    <glyph glyph-name="f" unicode="f" horiz-adv-x="271" 
d="M287 449l-11 -75h-91l-72 -563h-83l72 563h-72l11 75h71c9 136 75 242 216 242c38 0 72 -8 109 -21l-12 -84c-29 16 -62 25 -88 25c-83 0 -132 -57 -141 -162h91z" />
    <glyph glyph-name="g" unicode="g" horiz-adv-x="427" 
d="M445 449l-9 -66h-87c23 -33 30 -58 30 -89c0 -75 -36 -134 -105 -163c-53 -22 -153 -17 -153 -60c0 -56 246 -24 246 -173c0 -74 -77 -128 -183 -128c-113 0 -195 49 -195 116c0 53 61 77 129 91v2c-56 21 -78 44 -78 79c0 37 38 69 89 83c-53 25 -81 70 -81 129
c0 103 76 179 167 179h230zM298 290c0 53 -34 90 -80 90s-89 -50 -89 -104c0 -53 34 -91 81 -91c56 0 88 55 88 105zM286 -110c0 28 -47 52 -100 64c-58 -11 -116 -36 -116 -66c0 -33 46 -54 121 -54c58 0 95 23 95 56z" />
    <glyph glyph-name="h" unicode="h" 
d="M202 682l-43 -305l2 -2c50 58 103 88 156 88c81 0 114 -71 102 -157l-43 -306h-85l43 311c8 57 -14 88 -51 88c-41 0 -93 -48 -136 -107l-41 -292h-85l96 682h85z" />
    <glyph glyph-name="i" unicode="i" horiz-adv-x="188" 
d="M171 449l-63 -449h-85l63 449h85zM144 639c27 0 49 -22 49 -49s-22 -49 -49 -49s-49 22 -49 49s22 49 49 49z" />
    <glyph glyph-name="j" unicode="j" horiz-adv-x="188" 
d="M20 -67l66 516h85l-69 -540c-13 -102 -82 -139 -155 -139c-16 0 -36 3 -50 9l11 75c63 -15 102 1 112 79zM192 590c0 -27 -22 -49 -49 -49s-49 22 -49 49s22 49 49 49s49 -22 49 -49z" />
    <glyph glyph-name="k" unicode="k" horiz-adv-x="458" 
d="M204 682l-61 -426l2 -2l188 195h108l-206 -212l220 -237h-108l-207 228l-32 -228h-84l95 682h85z" />
    <glyph glyph-name="l" unicode="l" horiz-adv-x="188" 
d="M204 682l-96 -682h-85l96 682h85z" />
    <glyph glyph-name="m" unicode="m" horiz-adv-x="740" 
d="M171 449l-12 -78l2 -2c55 62 105 87 155 87c37 0 90 -19 102 -101c65 80 124 101 168 101c65 0 120 -49 103 -165l-41 -291h-85l42 295c9 59 -9 94 -46 94c-30 0 -79 -22 -141 -104l-41 -285h-85l40 284c10 65 -2 105 -50 105c-33 0 -88 -41 -135 -104l-40 -285h-85
l64 449h85z" />
    <glyph glyph-name="n" unicode="n" 
d="M178 449l-11 -79l2 -2c49 60 99 88 149 88c95 0 119 -99 107 -173l-43 -283h-84l41 286c11 78 -23 100 -49 100c-24 0 -71 -17 -135 -100l-41 -286h-84l63 449h85z" />
    <glyph glyph-name="o" unicode="o" horiz-adv-x="448" 
d="M418 267c0 -168 -95 -281 -213 -281c-106 0 -169 75 -169 201c0 157 93 276 215 276c102 0 167 -78 167 -196zM123 178c0 -72 35 -119 79 -119c71 0 129 89 129 213c0 75 -31 124 -80 124c-73 0 -128 -104 -128 -218z" />
    <glyph glyph-name="p" unicode="p" horiz-adv-x="490" 
d="M209 563l-16 -114c13 5 25 9 37 11s25 3 39 3c106 0 186 -89 186 -209c0 -113 -76 -268 -271 -268h-56l-30 -216h-85l80 568c-45 -33 -67 -82 -75 -82c-3 0 -4 2 -4 6c0 31 41 100 87 136l23 165h85zM184 386l-46 -328h41c131 0 189 108 189 196c0 101 -63 145 -128 145
c-22 0 -32 -2 -56 -13z" />
    <glyph glyph-name="q" unicode="q" 
d="M444 463l-97 -693h-85l34 243c-37 -18 -67 -27 -93 -27c-103 0 -172 82 -172 202c0 125 82 275 318 275h95zM305 76l44 317c-152 8 -231 -84 -231 -210c0 -77 46 -127 117 -127c19 0 38 5 70 20z" />
    <glyph glyph-name="r" unicode="r" horiz-adv-x="313" 
d="M185 449l-13 -85l2 -2c53 76 76 94 119 94c13 0 22 -1 37 -7v-96c-20 11 -34 15 -52 15c-44 0 -74 -27 -121 -115l-35 -253h-85l63 449h85z" />
    <glyph glyph-name="s" unicode="s" horiz-adv-x="354" 
d="M323 416v-89c-51 39 -98 59 -135 59c-35 0 -61 -21 -61 -47c0 -64 179 -95 179 -219c0 -81 -60 -134 -139 -134c-56 0 -92 14 -156 59l15 82c59 -47 102 -67 138 -67c34 0 58 21 58 50c0 75 -176 102 -176 224c0 77 55 129 141 129c47 0 94 -18 136 -47z" />
    <glyph glyph-name="t" unicode="t" horiz-adv-x="281" 
d="M285 449l-9 -66h-90l-43 -246c-10 -57 3 -75 44 -75c25 0 45 6 82 27l-5 -83c-36 -15 -60 -20 -93 -20c-88 0 -129 56 -117 125l47 272h-79l10 66h82l17 92h84l-16 -92h86z" />
    <glyph glyph-name="u" unicode="u" 
d="M436 449l-64 -449h-84l10 74l-2 2c-35 -37 -87 -83 -148 -83c-50 0 -123 36 -106 160l42 296h85l-42 -296c-11 -80 25 -95 48 -95c33 0 74 26 135 99l41 292h85z" />
    <glyph glyph-name="v" unicode="v" horiz-adv-x="375" 
d="M411 449l-231 -458h-42l-102 458h84l59 -285h2l144 285h86z" />
    <glyph glyph-name="w" unicode="w" horiz-adv-x="615" 
d="M647 449l-231 -458h-40l-58 294h-2l-152 -294h-39l-93 458h83l54 -302h2l146 302h42l56 -302h2l147 302h83z" />
    <glyph glyph-name="x" unicode="x" horiz-adv-x="427" 
d="M443 449l-181 -222l114 -227h-91l-82 168l-130 -168h-104l196 238l-106 211h91l71 -151l117 151h105z" />
    <glyph glyph-name="y" unicode="y" horiz-adv-x="375" 
d="M400 449l-322 -679h-90l122 257l-87 422h85l60 -309h2l141 309h89z" />
    <glyph glyph-name="z" unicode="z" horiz-adv-x="458" 
d="M447 449l-298 -374h261l-16 -75h-407l293 374h-227l10 75h384z" />
    <glyph glyph-name="braceleft" unicode="{" horiz-adv-x="333" 
d="M28 219v80c82 0 101 61 101 163v88c0 116 35 178 142 178h39v-76h-15c-70 0 -85 -18 -85 -101v-72c0 -135 -26 -188 -101 -220c75 -32 101 -85 101 -220v-72c0 -83 15 -101 85 -101h15v-76h-39c-107 0 -142 62 -142 178v88c0 102 -19 163 -101 163z" />
    <glyph glyph-name="bar" unicode="|" horiz-adv-x="260" 
d="M108 -250v1000h76v-1000h-76z" />
    <glyph glyph-name="braceright" unicode="}" horiz-adv-x="333" 
d="M305 299v-80c-82 0 -101 -61 -101 -163v-88c0 -116 -35 -178 -142 -178h-39v76h15c70 0 85 18 85 101v72c0 135 26 188 101 220c-75 32 -101 85 -101 220v72c0 83 -15 101 -85 101h-15v76h39c107 0 142 -62 142 -178v-88c0 -102 19 -163 101 -163z" />
    <glyph glyph-name="asciitilde" unicode="~" horiz-adv-x="584" 
d="M39 198v83c43 36 95 64 149 64c41 0 84 -19 126 -38s83 -38 120 -38c44 0 97 32 140 67v-83c-41 -35 -94 -64 -146 -64c-39 0 -83 19 -125 38c-43 19 -85 38 -122 38c-49 0 -94 -30 -142 -67z" />
    <glyph glyph-name="exclamdown" unicode="&#xa1;" horiz-adv-x="250" 
d="M120 295h37c-16 -141 -22 -311 -28 -414c-5 -80 -21 -111 -66 -111c-26 0 -40 22 -40 59c0 51 51 247 97 466zM151 359c-32 0 -58 26 -58 58s26 58 58 58s58 -26 58 -58s-26 -58 -58 -58z" />
    <glyph glyph-name="cent" unicode="&#xa2;" horiz-adv-x="385" 
d="M394 454l-11 -74c-15 3 -44 7 -63 7l-100 -325c50 -5 103 14 143 46l-13 -90c-35 -24 -113 -42 -153 -27l-56 -179h-46l58 188c-82 30 -125 97 -125 198c0 145 115 257 270 263l53 176h49l-55 -176c10 -1 37 -4 49 -7zM177 74l96 309c-95 -20 -158 -92 -158 -185
c0 -61 20 -97 62 -124z" />
    <glyph glyph-name="sterling" unicode="&#xa3;" 
d="M506 679l-12 -84c-20 8 -36 11 -51 11c-72 0 -128 -70 -184 -231h109l-24 -81h-110l-68 -200c13 1 19 2 28 2c50 0 87 -17 150 -17c41 0 77 10 113 27l-13 -93c-32 -15 -67 -22 -111 -22c-51 0 -109 17 -177 17c-42 0 -84 -6 -115 -16h-5l105 302h-88l24 81h89
c77 226 164 316 276 316c21 0 37 -3 64 -12z" />
    <glyph glyph-name="fraction" unicode="&#x2044;" horiz-adv-x="208" 
d="M410 691l-542 -718h-69l543 718h68z" />
    <glyph glyph-name="yen" unicode="&#xa5;" horiz-adv-x="552" 
d="M541 366l-14 -66h-198l-16 -74h199l-14 -66h-198l-34 -160h-88l33 160h-198l15 66h197l15 74h-199l14 66h167l-133 350h89l116 -339h6l232 339h110l-264 -350h163z" />
    <glyph glyph-name="florin" unicode="&#x192;" horiz-adv-x="552" 
d="M23 -198l17 76c35 -8 56 -11 75 -11c33 0 51 18 58 59l90 524h-98l11 68h99l14 85c15 89 61 126 140 126c28 0 57 -6 101 -19l-17 -75c-41 10 -55 12 -78 12c-40 0 -51 -23 -61 -78l-9 -51h99l-12 -68h-100l-93 -533c-16 -93 -51 -127 -130 -127c-27 0 -67 4 -106 12z
" />
    <glyph glyph-name="section" unicode="&#xa7;" horiz-adv-x="490" 
d="M461 544l-80 -29c8 15 11 25 11 41c0 38 -27 65 -66 65c-50 0 -94 -34 -94 -83c0 -106 218 -152 218 -326c0 -67 -56 -134 -135 -166c38 -50 51 -82 51 -121c0 -91 -74 -155 -179 -155c-76 0 -164 33 -162 143l77 43c-11 -70 17 -116 85 -116c50 0 92 29 92 77
c0 110 -231 176 -231 330c0 77 61 144 149 163c-37 40 -54 72 -54 118c0 96 78 163 190 163c94 0 144 -65 128 -147zM254 102c67 16 109 59 109 104c0 44 -35 92 -99 144c-75 -3 -129 -43 -129 -100c0 -55 65 -96 119 -148z" />
    <glyph glyph-name="currency" unicode="&#xa4;" horiz-adv-x="552" 
d="M463 226l67 -67l-57 -57l-67 67c-29 -20 -70 -35 -115 -35c-48 0 -87 16 -115 35l-67 -67l-57 57l67 67c-19 27 -35 70 -35 115c0 47 17 88 35 115l-67 67l57 57l67 -67c25 18 70 35 115 35c44 0 83 -14 115 -35l67 67l57 -57l-67 -67c24 -33 35 -84 35 -115
c0 -40 -15 -87 -35 -115zM291 468c-70 0 -127 -57 -127 -127s57 -127 127 -127s127 57 127 127s-57 127 -127 127z" />
    <glyph glyph-name="quotesingle" unicode="'" horiz-adv-x="188" 
d="M86 716h96v-117l-23 -137h-50l-23 137v117z" />
    <glyph glyph-name="quotedblleft" unicode="&#x201c;" horiz-adv-x="406" 
d="M439 690l-6 -44c-45 -15 -66 -42 -66 -86c25 -11 39 -28 39 -51c0 -35 -26 -59 -63 -59c-36 0 -63 34 -63 79c0 76 64 140 159 161zM224 690l-6 -44c-45 -15 -66 -42 -66 -86c25 -11 39 -28 39 -51c0 -35 -26 -59 -63 -59c-36 0 -63 34 -63 79c0 76 64 140 159 161z" />
    <glyph glyph-name="guillemotleft" unicode="&#xab;" horiz-adv-x="438" 
d="M446 449l-173 -235l84 -214h-68l-88 224l168 225h77zM252 449l-173 -235l84 -214h-68l-88 224l168 225h77z" />
    <glyph glyph-name="guilsinglleft" unicode="&#x2039;" horiz-adv-x="229" 
d="M245 449l-173 -235l84 -214h-68l-88 224l168 225h77z" />
    <glyph glyph-name="guilsinglright" unicode="&#x203a;" horiz-adv-x="229" 
d="M-36 0l173 235l-84 214h68l88 -224l-168 -225h-77z" />
    <glyph glyph-name="endash" unicode="&#x2013;" horiz-adv-x="500" 
d="M509 285v-64h-518v64h518z" />
    <glyph glyph-name="dagger" unicode="&#x2020;" horiz-adv-x="479" 
d="M245 405c-3 39 -5 80 -5 129c0 79 12 157 63 157c23 0 36 -24 36 -66c0 -57 -39 -163 -66 -220c40 15 105 29 140 29s58 -17 58 -42c0 -22 -28 -40 -62 -40c-41 0 -96 16 -136 29c-1 -113 -14 -327 -28 -438c-12 -99 -28 -173 -72 -173c-26 0 -42 27 -42 70
c0 102 72 391 114 541c-34 -12 -97 -29 -135 -29c-36 0 -60 17 -60 42c0 23 28 39 66 39c28 0 80 -12 129 -28z" />
    <glyph glyph-name="daggerdbl" unicode="&#x2021;" horiz-adv-x="458" 
d="M267 405c-8 -93 -3 -118 -3 -149c0 -66 -25 -92 -50 -202c59 20 93 29 129 29c37 0 56 -15 56 -42c0 -25 -24 -41 -64 -41c-48 0 -71 13 -121 31c1 -37 4 -59 4 -123s-8 -138 -57 -138c-27 0 -42 20 -42 54c0 44 18 99 69 207c-50 -20 -80 -31 -120 -31
c-50 0 -73 13 -73 39c0 25 27 44 69 44c31 0 77 -11 124 -28c6 75 1 122 1 162c0 49 29 81 52 188c-63 -21 -92 -25 -124 -25c-40 0 -63 13 -63 38c0 27 26 45 63 45c33 0 72 -11 124 -33c-3 33 -4 92 -4 128c0 91 18 133 58 133c25 0 40 -21 40 -54
c0 -57 -31 -126 -68 -205l2 -2c40 21 88 33 128 33c38 0 61 -15 61 -41s-26 -42 -67 -42c-37 0 -76 8 -124 25z" />
    <glyph glyph-name="periodcentered" unicode="&#xb7;" horiz-adv-x="260" 
d="M151 406c33 0 60 -27 60 -60s-27 -61 -60 -61s-61 28 -61 61s28 60 61 60z" />
    <glyph glyph-name="paragraph" unicode="&#xb6;" horiz-adv-x="542" 
d="M218 -199v510c-123 7 -197 84 -197 203c0 129 83 202 230 202h309v-81h-71v-834h-81v834h-109v-834h-81z" />
    <glyph glyph-name="bullet" unicode="&#x2022;" horiz-adv-x="354" 
d="M316 341c0 -68 -56 -124 -124 -124s-124 56 -124 124s56 124 124 124s124 -56 124 -124z" />
    <glyph glyph-name="quotesinglbase" unicode="&#x201a;" horiz-adv-x="198" 
d="M-24 -144l6 44c45 15 66 42 66 86c-25 11 -39 28 -39 51c0 35 26 59 63 59c36 0 63 -34 63 -79c0 -76 -64 -140 -159 -161z" />
    <glyph glyph-name="quotedblbase" unicode="&#x201e;" horiz-adv-x="406" 
d="M191 -144l6 44c45 15 66 42 66 86c-25 11 -39 28 -39 51c0 35 26 59 63 59c36 0 63 -34 63 -79c0 -76 -64 -140 -159 -161zM-24 -144l6 44c45 15 66 42 66 86c-25 11 -39 28 -39 51c0 35 26 59 63 59c36 0 63 -34 63 -79c0 -76 -64 -140 -159 -161z" />
    <glyph glyph-name="quotedblright" unicode="&#x201d;" horiz-adv-x="406" 
d="M277 451l6 44c45 15 66 42 66 86c-25 11 -39 28 -39 51c0 35 26 59 63 59c36 0 63 -34 63 -79c0 -76 -64 -140 -159 -161zM62 451l6 44c45 15 66 42 66 86c-25 11 -39 28 -39 51c0 35 26 59 63 59c36 0 63 -34 63 -79c0 -76 -64 -140 -159 -161z" />
    <glyph glyph-name="guillemotright" unicode="&#xbb;" horiz-adv-x="438" 
d="M170 0l173 235l-84 214h68l88 -224l-168 -225h-77zM-26 0l173 235l-84 214h68l88 -224l-168 -225h-77z" />
    <glyph glyph-name="ellipsis" unicode="&#x2026;" horiz-adv-x="1000" 
d="M804 111c33 0 59 -27 59 -60s-26 -60 -59 -60c-34 0 -60 27 -60 60s26 60 60 60zM470 111c33 0 60 -27 60 -60s-27 -60 -60 -60s-60 27 -60 60s27 60 60 60zM136 109c33 0 60 -26 60 -59s-27 -59 -60 -59s-59 26 -59 59s26 59 59 59z" />
    <glyph glyph-name="perthousand" unicode="&#x2030;" horiz-adv-x="1010" 
d="M259 539c0 45 -36 79 -79 79c-44 0 -79 -33 -79 -79c0 -41 37 -79 79 -79c45 0 79 37 79 79zM332 539c0 -82 -70 -152 -152 -152c-86 0 -152 71 -152 152c0 86 66 152 152 152c83 0 152 -66 152 -152zM601 691l-448 -700h-76l449 700h75zM933 144c0 45 -36 79 -79 79
c-44 0 -79 -33 -79 -79c0 -41 37 -79 79 -79c45 0 79 37 79 79zM1006 144c0 -82 -70 -152 -152 -152c-86 0 -152 71 -152 152c0 86 66 152 152 152c83 0 152 -66 152 -152zM577 144c0 45 -36 79 -79 79c-44 0 -79 -33 -79 -79c0 -41 37 -79 79 -79c45 0 79 37 79 79z
M650 144c0 -82 -70 -152 -152 -152c-86 0 -152 71 -152 152c0 86 66 152 152 152c83 0 152 -66 152 -152z" />
    <glyph glyph-name="questiondown" unicode="&#xbf;" horiz-adv-x="354" 
d="M271 -93l-14 -99c-43 -27 -74 -38 -112 -38c-88 0 -146 61 -146 154c0 145 178 186 203 371h55c0 -212 -171 -277 -171 -369c0 -44 28 -75 74 -75c31 0 72 20 111 56zM241 359c-32 0 -58 26 -58 58s26 58 58 58s58 -26 58 -58s-26 -58 -58 -58z" />
    <glyph glyph-name="grave" unicode="`" horiz-adv-x="333" 
d="M201 670l68 -146h-56l-113 146h101z" />
    <glyph glyph-name="acute" unicode="&#xb4;" horiz-adv-x="333" 
d="M226 670h101l-113 -146h-56z" />
    <glyph glyph-name="circumflex" unicode="&#x2c6;" horiz-adv-x="333" 
d="M288 670l75 -148h-41l-83 99l-134 -99h-47l131 148h99z" />
    <glyph glyph-name="tilde" unicode="&#x2dc;" horiz-adv-x="333" 
d="M328 652h39c0 -58 -28 -114 -82 -114c-28 0 -105 38 -138 38c-19 0 -32 -15 -34 -37h-40c1 71 32 114 81 114c37 0 106 -38 140 -38c19 0 31 14 34 37z" />
    <glyph glyph-name="macron" unicode="&#xaf;" horiz-adv-x="333" 
d="M378 635l-9 -64h-322l9 64h322z" />
    <glyph glyph-name="breve" unicode="&#x2d8;" horiz-adv-x="333" 
d="M308 659h49c-24 -82 -75 -128 -141 -128c-73 0 -116 59 -112 128h47c1 -38 29 -64 69 -64c35 0 65 22 88 64z" />
    <glyph glyph-name="dotaccent" unicode="&#x2d9;" horiz-adv-x="333" 
d="M220 639c25 0 46 -21 46 -46s-21 -46 -46 -46s-46 21 -46 46s21 46 46 46z" />
    <glyph glyph-name="dieresis" unicode="&#xa8;" horiz-adv-x="333" 
d="M309 639c25 0 46 -21 46 -46s-21 -46 -46 -46s-46 21 -46 46s21 46 46 46zM130 639c25 0 46 -21 46 -46s-21 -46 -46 -46s-46 21 -46 46s21 46 46 46z" />
    <glyph glyph-name="ring" unicode="&#x2da;" horiz-adv-x="333" 
d="M219 691c52 0 94 -42 94 -94s-42 -94 -94 -94s-94 42 -94 94s42 94 94 94zM219 650c-30 0 -55 -25 -55 -55s25 -55 55 -55s55 25 55 55s-25 55 -55 55z" />
    <glyph glyph-name="cedilla" unicode="&#xb8;" horiz-adv-x="333" 
d="M180 7l-9 -24c31 -14 46 -35 46 -68c0 -49 -46 -86 -106 -86c-23 0 -48 3 -68 7l12 46c20 -5 31 -7 42 -7c29 0 47 15 47 38c0 15 -8 25 -27 35l28 59h35z" />
    <glyph glyph-name="hungarumlaut" unicode="&#x2dd;" horiz-adv-x="333" 
d="M312 670h101l-113 -146h-56zM153 670h101l-113 -146h-56z" />
    <glyph glyph-name="ogonek" unicode="&#x2db;" horiz-adv-x="333" 
d="M220 -111l-10 -68c-28 -7 -37 -8 -62 -8c-61 0 -110 41 -110 93c0 28 12 61 37 101h77c-24 -42 -29 -55 -29 -74c0 -28 26 -50 59 -50c13 0 18 1 38 6z" />
    <glyph glyph-name="caron" unicode="&#x2c7;" horiz-adv-x="333" 
d="M153 522l-75 148h41l83 -99l134 99h47l-131 -148h-99z" />
    <glyph glyph-name="emdash" unicode="&#x2014;" horiz-adv-x="1000" 
d="M1009 285v-64h-1018v64h1018z" />
    <glyph glyph-name="AE" unicode="&#xc6;" horiz-adv-x="833" 
d="M801 682l-11 -81h-261l-30 -211h245l-11 -81h-245l-32 -228h356l-11 -81h-446l43 309h-152l-170 -309h-97l389 682h433zM440 607h-31l-124 -226h123z" />
    <glyph glyph-name="ordfeminine" unicode="&#xaa;" horiz-adv-x="313" 
d="M327 682l-42 -270h-66l3 23c-26 -19 -45 -26 -70 -26c-57 0 -100 46 -100 106c0 106 81 176 201 176c24 0 54 -4 74 -9zM231 493l23 149c-73 0 -134 -36 -134 -119c0 -40 21 -69 50 -69c19 0 37 12 61 39z" />
    <glyph glyph-name="Lslash" unicode="&#x141;" horiz-adv-x="417" 
d="M306 449l-135 -112l-39 -261h280l-11 -76h-366l37 265l-72 -60l13 89l72 61l46 327h90l-37 -255l135 113z" />
    <glyph glyph-name="Oslash" unicode="&#xd8;" horiz-adv-x="656" 
d="M521 500l-326 -388c21 -23 54 -39 101 -39c127 0 235 155 235 348c0 45 -6 63 -10 79zM548 622l65 78l38 -45l-68 -81c31 -51 40 -108 40 -169c0 -245 -154 -414 -329 -414c-58 0 -114 22 -152 57l-75 -89l-38 41l75 90c-32 47 -53 115 -53 189c0 179 113 412 331 412
c72 0 124 -27 166 -69zM163 161l330 395c-27 39 -67 53 -112 53c-161 0 -238 -197 -238 -343c0 -38 8 -73 20 -105z" />
    <glyph glyph-name="OE" unicode="&#x152;" horiz-adv-x="969" 
d="M932 682l-12 -81h-275l-29 -213h258l-12 -81h-258l-31 -226h367l-11 -81h-452c-8 0 -26 -1 -48 -2s-47 -2 -71 -2c-237 0 -307 161 -307 307c0 121 93 379 375 379h506zM556 601h-56c-43 0 -59 1 -88 1c-162 0 -264 -120 -264 -308c0 -144 75 -213 188 -213h147z" />
    <glyph glyph-name="ordmasculine" unicode="&#xba;" horiz-adv-x="302" 
d="M316 571c0 -97 -59 -167 -142 -167c-71 0 -114 45 -114 122c0 94 62 165 144 165c69 0 112 -47 112 -120zM249 574c0 51 -18 71 -45 71c-44 0 -77 -51 -77 -133c0 -35 20 -62 46 -62c41 0 76 56 76 124z" />
    <glyph glyph-name="ae" unicode="&#xe6;" horiz-adv-x="646" 
d="M588 119l-12 -87c-49 -31 -96 -46 -146 -46c-67 0 -121 30 -152 85c-53 -60 -111 -85 -151 -85c-70 0 -115 42 -115 107c0 72 68 135 249 168c24 77 -1 128 -53 128c-40 0 -98 -32 -148 -83l14 96c55 44 95 61 150 61c45 0 79 -21 100 -61c34 37 88 61 139 61
c104 0 168 -119 146 -248h-267c-25 -110 33 -159 100 -159c40 0 96 24 146 63zM350 274h182c2 32 -10 119 -84 119c-46 0 -92 -37 -98 -119zM241 106l13 93c-95 -18 -155 -57 -155 -102c0 -24 19 -41 45 -41c31 0 61 16 97 50z" />
    <glyph glyph-name="dotlessi" unicode="&#x131;" horiz-adv-x="188" 
d="M171 449l-63 -449h-85l63 449h85z" />
    <glyph glyph-name="lslash" unicode="&#x142;" horiz-adv-x="188" 
d="M230 388l-75 -56l-47 -332h-85l38 269l-73 -54l7 61l75 55l49 351h85l-40 -288l75 56z" />
    <glyph glyph-name="oslash" unicode="&#xf8;" horiz-adv-x="448" 
d="M127 143l184 214c-14 25 -34 39 -60 39c-73 0 -128 -104 -128 -218c0 -12 1 -24 4 -35zM430 429l-39 -46c17 -31 27 -71 27 -116c0 -168 -95 -281 -213 -281c-48 0 -88 16 -116 45l-41 -47l-30 33l44 51c-17 32 -26 72 -26 119c0 157 93 276 215 276c46 0 85 -16 113 -45
l37 43zM328 309l-184 -214c14 -23 35 -36 58 -36c71 0 129 89 129 213c0 13 -1 26 -3 37z" />
    <glyph glyph-name="oe" unicode="&#x153;" horiz-adv-x="719" 
d="M677 235h-277c-20 -101 19 -179 117 -179c47 0 98 24 141 67l-14 -94c-45 -30 -87 -43 -133 -43c-72 0 -128 31 -169 93c-44 -61 -97 -93 -146 -93c-106 0 -169 75 -169 201c0 157 93 276 215 276c58 0 104 -28 133 -80c43 54 90 80 146 80c110 0 166 -82 156 -228z
M312 284c0 66 -30 109 -70 112c-74 0 -128 -104 -128 -218c0 -72 34 -119 79 -119c68 -6 119 94 119 225zM408 294h188c-1 64 -31 102 -83 102c-51 0 -90 -38 -105 -102z" />
    <glyph glyph-name="germandbls" unicode="&#xdf;" horiz-adv-x="500" 
d="M41 0l63 449c23 161 90 242 201 242c97 0 166 -67 166 -162c0 -68 -45 -127 -111 -143v-2c68 -28 92 -105 92 -160c0 -130 -89 -238 -195 -238c-23 0 -38 4 -53 14l9 64c12 -3 23 -4 34 -4c72 0 120 69 120 171c0 79 -39 125 -112 133l8 58c81 -8 132 44 132 106
c0 59 -36 99 -88 99c-67 0 -100 -47 -117 -168l-64 -459h-85z" />
    <glyph glyph-name="logicalnot" unicode="&#xac;" horiz-adv-x="584" 
d="M543 126h-82v213h-391v82h473v-295z" />
    <glyph glyph-name="mu" unicode="&#xb5;" horiz-adv-x="552" 
d="M135 449h85l-58 -276c-16 -78 17 -123 76 -123c73 0 111 47 127 124l57 275h85l-93 -449h-77l4 32c-16 -13 -20 -17 -34 -25c-10 -6 -32 -21 -76 -21c-41 0 -73 20 -97 54l-43 -213h-84z" />
    <glyph glyph-name="trademark" unicode="&#x2122;" horiz-adv-x="1000" 
d="M199 318v339h-129v59h325v-59h-130v-339h-66zM440 318v398h98l99 -318h2l96 318h96v-398h-61v334h-2l-100 -334h-60l-105 339h-2v-339h-61z" />
    <glyph glyph-name="Eth" unicode="&#xd0;" horiz-adv-x="656" 
d="M216 601l-31 -219h156l-11 -81h-156l-31 -220h82c127 0 179 18 225 64c39 39 70 111 70 198c0 179 -115 258 -304 258zM136 682h81c134 0 247 -40 316 -109c57 -57 84 -131 84 -233c0 -179 -100 -340 -352 -340h-226l43 301h-79l12 81h78z" />
    <glyph glyph-name="onehalf" unicode="&#xbd;" horiz-adv-x="844" 
d="M263 691l-66 -359h-64l65 359h65zM664 691l-542 -718h-69l543 718h68zM506 273l9 60c35 19 63 26 96 26c61 0 104 -35 104 -84s-36 -103 -155 -227h150l-7 -48h-259c138 143 209 233 209 267c0 26 -19 41 -52 41c-28 0 -57 -10 -95 -35z" />
    <glyph glyph-name="plusminus" unicode="&#xb1;" horiz-adv-x="584" 
d="M71 82h472v-82h-472v82zM266 589h82v-195h195v-82h-195v-195h-82v195h-195v82h195v195z" />
    <glyph glyph-name="Thorn" unicode="&#xde;" horiz-adv-x="448" 
d="M123 682h93l-20 -144h24c105 0 221 -39 221 -193c0 -76 -53 -201 -218 -201h-82l-20 -144h-94zM185 457l-32 -232h66c94 0 131 66 131 123c0 55 -34 109 -125 109h-40z" />
    <glyph glyph-name="onequarter" unicode="&#xbc;" horiz-adv-x="844" 
d="M665 360l-37 -209h58l-6 -43h-60l-20 -108h-63l21 108h-151v23l217 229h41zM580 242l-86 -91h72l16 89zM263 691l-66 -359h-64l65 359h65zM664 691l-542 -718h-69l543 718h68z" />
    <glyph glyph-name="divide" unicode="&#xf7;" horiz-adv-x="584" 
d="M71 394h472v-82h-472v82zM307 259c29 0 53 -24 53 -53s-24 -53 -53 -53s-53 24 -53 53s24 53 53 53zM307 553c29 0 53 -24 53 -53s-24 -53 -53 -53s-53 24 -53 53s24 53 53 53z" />
    <glyph glyph-name="brokenbar" unicode="&#xa6;" horiz-adv-x="260" 
d="M92 -175v350h76v-350h-76zM92 325v350h76v-350h-76z" />
    <glyph glyph-name="degree" unicode="&#xb0;" horiz-adv-x="396" 
d="M197 675c-46 0 -82 -36 -82 -82s36 -83 82 -83s83 37 83 83s-37 82 -83 82zM197 728c75 0 135 -60 135 -135s-60 -135 -135 -135s-135 60 -135 135s60 135 135 135z" />
    <glyph glyph-name="thorn" unicode="&#xfe;" horiz-adv-x="490" 
d="M184 386l-46 -328h41c131 0 189 108 189 196c0 101 -63 145 -128 145c-22 0 -32 -2 -56 -13zM13 -230l128 912h85l-33 -233c13 5 25 9 37 11s25 3 39 3c106 0 186 -89 186 -209c0 -113 -76 -268 -271 -268h-56l-30 -216h-85z" />
    <glyph glyph-name="threequarters" unicode="&#xbe;" horiz-adv-x="844" 
d="M135 616l8 58c31 12 59 17 89 17c69 0 114 -37 114 -94c0 -37 -26 -66 -74 -83c33 -14 50 -42 50 -79c0 -62 -62 -108 -145 -108c-41 0 -75 10 -103 21l7 49c24 -10 52 -22 94 -22c50 0 81 24 81 63c0 35 -26 54 -75 54l7 45c59 6 87 26 87 61c0 27 -22 45 -55 45
c-29 0 -54 -8 -85 -27zM730 691l-542 -718h-69l543 718h68zM731 360l-37 -209h58l-6 -43h-60l-20 -108h-63l21 108h-151v23l217 229h41zM646 242l-86 -91h72l16 89z" />
    <glyph glyph-name="registered" unicode="&#xae;" horiz-adv-x="740" 
d="M208 156v396h175c98 0 131 -61 131 -104c0 -64 -46 -110 -113 -114v-2c34 -12 59 -46 92 -99l48 -77h-78l-35 62c-50 89 -69 106 -118 106h-38v-168h-64zM272 379h92c49 0 82 19 82 60c0 36 -29 59 -71 59h-103v-119zM369 728c204 0 369 -164 369 -368
s-165 -369 -369 -369s-368 165 -368 369s164 368 368 368zM369 667c-170 0 -307 -137 -307 -307s137 -308 307 -308s308 138 308 308s-138 307 -308 307z" />
    <glyph glyph-name="minus" unicode="&#x2212;" horiz-adv-x="584" 
d="M71 394h472v-82h-472v82z" />
    <glyph glyph-name="eth" unicode="&#xf0;" horiz-adv-x="448" 
d="M343 269c0 90 -35 127 -93 127c-74 0 -128 -108 -128 -221c0 -63 34 -122 79 -122c78 0 142 119 142 216zM437 652l-89 -47c57 -84 83 -198 83 -280c0 -187 -93 -339 -232 -339c-101 0 -163 77 -163 202c0 153 94 275 213 275c27 0 56 -5 83 -30l2 2
c-7 39 -29 90 -58 132l-91 -49l-25 40l86 45c-11 13 -23 24 -35 32l52 56c22 -13 41 -30 57 -49l93 49z" />
    <glyph glyph-name="multiply" unicode="&#xd7;" horiz-adv-x="584" 
d="M94 200l154 154l-154 154l59 59l154 -154l153 153l59 -59l-153 -153l153 -153l-59 -59l-153 153l-154 -154z" />
    <glyph glyph-name="copyright" unicode="&#xa9;" horiz-adv-x="740" 
d="M488 300l60 -18c-20 -85 -87 -133 -182 -133c-116 0 -189 83 -189 216c0 122 78 201 197 201c85 0 145 -41 167 -115l-58 -14c-20 50 -58 75 -114 75c-76 0 -125 -62 -125 -157c0 -93 47 -149 126 -149c57 0 104 37 118 94zM369 728c204 0 369 -164 369 -368
s-165 -369 -369 -369s-368 165 -368 369s164 368 368 368zM369 667c-170 0 -307 -137 -307 -307s137 -308 307 -308s308 138 308 308s-138 307 -308 307z" />
    <glyph glyph-name="Aacute" unicode="&#xc1;" horiz-adv-x="521" 
d="M352 686l133 -686h-84l-41 214h-214l-90 -214h-91l301 686h86zM292 566l-116 -280h170l-52 280h-2zM338 888h101l-113 -146h-56z" />
    <glyph glyph-name="Acircumflex" unicode="&#xc2;" horiz-adv-x="521" 
d="M352 686l133 -686h-84l-41 214h-214l-90 -214h-91l301 686h86zM292 566l-116 -280h170l-52 280h-2zM400 888l75 -148h-41l-83 99l-134 -99h-47l131 148h99z" />
    <glyph glyph-name="Adieresis" unicode="&#xc4;" horiz-adv-x="521" 
d="M352 686l133 -686h-84l-41 214h-214l-90 -214h-91l301 686h86zM292 566l-116 -280h170l-52 280h-2zM421 857c25 0 46 -21 46 -46s-21 -46 -46 -46s-46 21 -46 46s21 46 46 46zM242 857c25 0 46 -21 46 -46s-21 -46 -46 -46s-46 21 -46 46s21 46 46 46z" />
    <glyph glyph-name="Agrave" unicode="&#xc0;" horiz-adv-x="521" 
d="M352 686l133 -686h-84l-41 214h-214l-90 -214h-91l301 686h86zM292 566l-116 -280h170l-52 280h-2zM313 888l68 -146h-56l-113 146h101z" />
    <glyph glyph-name="Aring" unicode="&#xc5;" horiz-adv-x="521" 
d="M352 686l133 -686h-84l-41 214h-214l-90 -214h-91l301 686h86zM292 566l-116 -280h170l-52 280h-2zM331 909c52 0 94 -42 94 -94s-42 -94 -94 -94s-94 42 -94 94s42 94 94 94zM331 868c-30 0 -55 -25 -55 -55s25 -55 55 -55s55 25 55 55s-25 55 -55 55z" />
    <glyph glyph-name="Atilde" unicode="&#xc3;" horiz-adv-x="521" 
d="M352 686l133 -686h-84l-41 214h-214l-90 -214h-91l301 686h86zM292 566l-116 -280h170l-52 280h-2zM440 870h39c0 -58 -28 -114 -82 -114c-28 0 -105 38 -138 38c-19 0 -32 -15 -34 -37h-40c1 71 32 114 81 114c37 0 106 -38 140 -38c19 0 31 14 34 37z" />
    <glyph glyph-name="Ccedilla" unicode="&#xc7;" horiz-adv-x="552" 
d="M529 161l-15 -110c-68 -39 -140 -61 -213 -60l-5 -13c31 -14 46 -35 46 -68c0 -49 -46 -86 -106 -86c-23 0 -48 3 -68 7l12 46c20 -5 31 -7 42 -7c29 0 47 15 47 38c0 15 -8 25 -27 35l25 52c-131 21 -218 130 -218 280c0 238 176 416 466 416h65l-18 -86h-50
c-283 0 -366 -194 -366 -324c0 -124 70 -204 179 -204c58 0 143 35 204 84z" />
    <glyph glyph-name="Eacute" unicode="&#xc9;" horiz-adv-x="510" 
d="M498 682l-11 -81h-273l-30 -214h241l-11 -81h-242l-33 -225h359l-12 -81h-448l99 682h361zM344 888h101l-113 -146h-56z" />
    <glyph glyph-name="Ecircumflex" unicode="&#xca;" horiz-adv-x="510" 
d="M498 682l-11 -81h-273l-30 -214h241l-11 -81h-242l-33 -225h359l-12 -81h-448l99 682h361zM406 888l75 -148h-41l-83 99l-134 -99h-47l131 148h99z" />
    <glyph glyph-name="Edieresis" unicode="&#xcb;" horiz-adv-x="510" 
d="M498 682l-11 -81h-273l-30 -214h241l-11 -81h-242l-33 -225h359l-12 -81h-448l99 682h361zM427 857c25 0 46 -21 46 -46s-21 -46 -46 -46s-46 21 -46 46s21 46 46 46zM248 857c25 0 46 -21 46 -46s-21 -46 -46 -46s-46 21 -46 46s21 46 46 46z" />
    <glyph glyph-name="Egrave" unicode="&#xc8;" horiz-adv-x="510" 
d="M498 682l-11 -81h-273l-30 -214h241l-11 -81h-242l-33 -225h359l-12 -81h-448l99 682h361zM319 888l68 -146h-56l-113 146h101z" />
    <glyph glyph-name="Iacute" unicode="&#xcd;" horiz-adv-x="240" 
d="M229 682l-96 -682h-94l96 682h94zM208 888h101l-113 -146h-56z" />
    <glyph glyph-name="Icircumflex" unicode="&#xce;" horiz-adv-x="240" 
d="M229 682l-96 -682h-94l96 682h94zM270 888l75 -148h-41l-83 99l-134 -99h-47l131 148h99z" />
    <glyph glyph-name="Idieresis" unicode="&#xcf;" horiz-adv-x="240" 
d="M229 682l-96 -682h-94l96 682h94zM291 857c25 0 46 -21 46 -46s-21 -46 -46 -46s-46 21 -46 46s21 46 46 46zM112 857c25 0 46 -21 46 -46s-21 -46 -46 -46s-46 21 -46 46s21 46 46 46z" />
    <glyph glyph-name="Igrave" unicode="&#xcc;" horiz-adv-x="240" 
d="M229 682l-96 -682h-94l96 682h94zM183 888l68 -146h-56l-113 146h101z" />
    <glyph glyph-name="Ntilde" unicode="&#xd1;" horiz-adv-x="688" 
d="M678 682l-96 -682h-49l-339 498l-70 -498h-85l96 682h46l341 -502l71 502h85zM535 870h39c0 -58 -28 -114 -82 -114c-28 0 -105 38 -138 38c-19 0 -32 -15 -34 -37h-40c1 71 32 114 81 114c37 0 106 -38 140 -38c19 0 31 14 34 37z" />
    <glyph glyph-name="Oacute" unicode="&#xd3;" horiz-adv-x="656" 
d="M623 405c0 -245 -154 -414 -329 -414c-143 0 -243 119 -243 288c0 179 113 412 331 412c145 0 241 -116 241 -286zM531 421c0 120 -60 188 -150 188c-161 0 -238 -197 -238 -343c0 -120 60 -193 153 -193c127 0 235 155 235 348zM417 888h101l-113 -146h-56z" />
    <glyph glyph-name="Ocircumflex" unicode="&#xd4;" horiz-adv-x="656" 
d="M623 405c0 -245 -154 -414 -329 -414c-143 0 -243 119 -243 288c0 179 113 412 331 412c145 0 241 -116 241 -286zM531 421c0 120 -60 188 -150 188c-161 0 -238 -197 -238 -343c0 -120 60 -193 153 -193c127 0 235 155 235 348zM479 888l75 -148h-41l-83 99l-134 -99
h-47l131 148h99z" />
    <glyph glyph-name="Odieresis" unicode="&#xd6;" horiz-adv-x="656" 
d="M623 405c0 -245 -154 -414 -329 -414c-143 0 -243 119 -243 288c0 179 113 412 331 412c145 0 241 -116 241 -286zM531 421c0 120 -60 188 -150 188c-161 0 -238 -197 -238 -343c0 -120 60 -193 153 -193c127 0 235 155 235 348zM500 857c25 0 46 -21 46 -46
s-21 -46 -46 -46s-46 21 -46 46s21 46 46 46zM321 857c25 0 46 -21 46 -46s-21 -46 -46 -46s-46 21 -46 46s21 46 46 46z" />
    <glyph glyph-name="Ograve" unicode="&#xd2;" horiz-adv-x="656" 
d="M623 405c0 -245 -154 -414 -329 -414c-143 0 -243 119 -243 288c0 179 113 412 331 412c145 0 241 -116 241 -286zM531 421c0 120 -60 188 -150 188c-161 0 -238 -197 -238 -343c0 -120 60 -193 153 -193c127 0 235 155 235 348zM392 888l68 -146h-56l-113 146h101z" />
    <glyph glyph-name="Otilde" unicode="&#xd5;" horiz-adv-x="656" 
d="M623 405c0 -245 -154 -414 -329 -414c-143 0 -243 119 -243 288c0 179 113 412 331 412c145 0 241 -116 241 -286zM531 421c0 120 -60 188 -150 188c-161 0 -238 -197 -238 -343c0 -120 60 -193 153 -193c127 0 235 155 235 348zM519 870h39c0 -58 -28 -114 -82 -114
c-28 0 -105 38 -138 38c-19 0 -32 -15 -34 -37h-40c1 71 32 114 81 114c37 0 106 -38 140 -38c19 0 31 14 34 37z" />
    <glyph glyph-name="Scaron" unicode="&#x160;" horiz-adv-x="458" 
d="M439 664l-13 -93c-42 27 -78 36 -120 36c-73 0 -120 -41 -120 -103c0 -110 231 -156 231 -333c0 -85 -66 -180 -202 -180c-45 0 -106 14 -165 49l14 100c72 -50 119 -65 160 -65c35 0 101 24 101 88c0 121 -231 163 -231 342c0 112 108 186 220 186c28 0 79 -7 125 -27z
M245 740l-75 148h41l83 -99l134 99h47l-131 -148h-99z" />
    <glyph glyph-name="Uacute" unicode="&#xda;" horiz-adv-x="635" 
d="M637 682l-59 -421c-26 -186 -132 -270 -284 -270c-156 0 -252 100 -231 252l62 439h90l-63 -446c-15 -109 58 -163 147 -163c48 0 97 17 131 51c35 35 47 84 58 166l55 392h94zM406 888h101l-113 -146h-56z" />
    <glyph glyph-name="Ucircumflex" unicode="&#xdb;" horiz-adv-x="635" 
d="M637 682l-59 -421c-26 -186 -132 -270 -284 -270c-156 0 -252 100 -231 252l62 439h90l-63 -446c-15 -109 58 -163 147 -163c48 0 97 17 131 51c35 35 47 84 58 166l55 392h94zM468 888l75 -148h-41l-83 99l-134 -99h-47l131 148h99z" />
    <glyph glyph-name="Udieresis" unicode="&#xdc;" horiz-adv-x="635" 
d="M637 682l-59 -421c-26 -186 -132 -270 -284 -270c-156 0 -252 100 -231 252l62 439h90l-63 -446c-15 -109 58 -163 147 -163c48 0 97 17 131 51c35 35 47 84 58 166l55 392h94zM489 857c25 0 46 -21 46 -46s-21 -46 -46 -46s-46 21 -46 46s21 46 46 46zM310 857
c25 0 46 -21 46 -46s-21 -46 -46 -46s-46 21 -46 46s21 46 46 46z" />
    <glyph glyph-name="Ugrave" unicode="&#xd9;" horiz-adv-x="635" 
d="M637 682l-59 -421c-26 -186 -132 -270 -284 -270c-156 0 -252 100 -231 252l62 439h90l-63 -446c-15 -109 58 -163 147 -163c48 0 97 17 131 51c35 35 47 84 58 166l55 392h94zM381 888l68 -146h-56l-113 146h101z" />
    <glyph glyph-name="Yacute" unicode="&#xdd;" horiz-adv-x="490" 
d="M557 682l-239 -342l-48 -340h-90l48 340l-160 342h95l116 -250l174 250h104zM334 888h101l-113 -146h-56z" />
    <glyph glyph-name="Ydieresis" unicode="&#x178;" horiz-adv-x="490" 
d="M557 682l-239 -342l-48 -340h-90l48 340l-160 342h95l116 -250l174 250h104zM417 857c25 0 46 -21 46 -46s-21 -46 -46 -46s-46 21 -46 46s21 46 46 46zM238 857c25 0 46 -21 46 -46s-21 -46 -46 -46s-46 21 -46 46s21 46 46 46z" />
    <glyph glyph-name="Zcaron" unicode="&#x17d;" horiz-adv-x="583" 
d="M647 682l-497 -597h404l-12 -85h-574l495 597h-388l12 85h560zM307 740l-75 148h41l83 -99l134 99h47l-131 -148h-99z" />
    <glyph glyph-name="aacute" unicode="&#xe1;" 
d="M446 449l-63 -449h-85l8 52l-2 2c-35 -38 -78 -63 -121 -63c-83 0 -148 80 -148 178c0 143 86 294 305 294c32 0 81 -6 106 -14zM316 130l37 259c-194 16 -231 -145 -231 -205c0 -72 37 -123 89 -123c34 0 79 34 105 69zM294 670h101l-113 -146h-56z" />
    <glyph glyph-name="acircumflex" unicode="&#xe2;" 
d="M446 449l-63 -449h-85l8 52l-2 2c-35 -38 -78 -63 -121 -63c-83 0 -148 80 -148 178c0 143 86 294 305 294c32 0 81 -6 106 -14zM316 130l37 259c-194 16 -231 -145 -231 -205c0 -72 37 -123 89 -123c34 0 79 34 105 69zM376 670l75 -148h-41l-83 99l-134 -99h-47
l131 148h99z" />
    <glyph glyph-name="adieresis" unicode="&#xe4;" 
d="M446 449l-63 -449h-85l8 52l-2 2c-35 -38 -78 -63 -121 -63c-83 0 -148 80 -148 178c0 143 86 294 305 294c32 0 81 -6 106 -14zM316 130l37 259c-194 16 -231 -145 -231 -205c0 -72 37 -123 89 -123c34 0 79 34 105 69zM397 639c25 0 46 -21 46 -46s-21 -46 -46 -46
s-46 21 -46 46s21 46 46 46zM218 639c25 0 46 -21 46 -46s-21 -46 -46 -46s-46 21 -46 46s21 46 46 46z" />
    <glyph glyph-name="agrave" unicode="&#xe0;" 
d="M446 449l-63 -449h-85l8 52l-2 2c-35 -38 -78 -63 -121 -63c-83 0 -148 80 -148 178c0 143 86 294 305 294c32 0 81 -6 106 -14zM316 130l37 259c-194 16 -231 -145 -231 -205c0 -72 37 -123 89 -123c34 0 79 34 105 69zM289 670l68 -146h-56l-113 146h101z" />
    <glyph glyph-name="aring" unicode="&#xe5;" 
d="M446 449l-63 -449h-85l8 52l-2 2c-35 -38 -78 -63 -121 -63c-83 0 -148 80 -148 178c0 143 86 294 305 294c32 0 81 -6 106 -14zM316 130l37 259c-194 16 -231 -145 -231 -205c0 -72 37 -123 89 -123c34 0 79 34 105 69zM307 691c52 0 94 -42 94 -94s-42 -94 -94 -94
s-94 42 -94 94s42 94 94 94zM307 650c-30 0 -55 -25 -55 -55s25 -55 55 -55s55 25 55 55s-25 55 -55 55z" />
    <glyph glyph-name="atilde" unicode="&#xe3;" 
d="M446 449l-63 -449h-85l8 52l-2 2c-35 -38 -78 -63 -121 -63c-83 0 -148 80 -148 178c0 143 86 294 305 294c32 0 81 -6 106 -14zM316 130l37 259c-194 16 -231 -145 -231 -205c0 -72 37 -123 89 -123c34 0 79 34 105 69zM396 652h39c0 -58 -28 -114 -82 -114
c-28 0 -105 38 -138 38c-19 0 -32 -15 -34 -37h-40c1 71 32 114 81 114c37 0 106 -38 140 -38c19 0 31 14 34 37z" />
    <glyph glyph-name="ccedilla" unicode="&#xe7;" horiz-adv-x="385" 
d="M357 100l-10 -82c-43 -23 -79 -32 -131 -32l-5 -13c31 -14 46 -35 46 -68c0 -49 -46 -86 -106 -86c-23 0 -48 3 -68 7l12 46c20 -5 31 -7 42 -7c29 0 47 15 47 38c0 15 -8 25 -27 35l25 52c-98 15 -158 91 -158 203c0 146 114 270 291 270c23 0 49 -3 77 -8l-11 -75
c-23 5 -44 7 -65 7c-125 0 -205 -94 -205 -189c0 -85 47 -136 123 -136c45 0 81 13 123 38z" />
    <glyph glyph-name="eacute" unicode="&#xe9;" horiz-adv-x="438" 
d="M388 117l-12 -81c-45 -33 -96 -50 -150 -50c-114 0 -188 86 -188 217c0 147 93 260 213 260c100 0 175 -93 156 -230h-280c-21 -120 45 -177 115 -177c42 0 90 20 146 61zM140 292h188c0 57 -25 101 -81 101c-50 0 -84 -33 -107 -101zM279 670h101l-113 -146h-56z" />
    <glyph glyph-name="ecircumflex" unicode="&#xea;" horiz-adv-x="438" 
d="M388 117l-12 -81c-45 -33 -96 -50 -150 -50c-114 0 -188 86 -188 217c0 147 93 260 213 260c100 0 175 -93 156 -230h-280c-21 -120 45 -177 115 -177c42 0 90 20 146 61zM140 292h188c0 57 -25 101 -81 101c-50 0 -84 -33 -107 -101zM341 670l75 -148h-41l-83 99
l-134 -99h-47l131 148h99z" />
    <glyph glyph-name="edieresis" unicode="&#xeb;" horiz-adv-x="438" 
d="M388 117l-12 -81c-45 -33 -96 -50 -150 -50c-114 0 -188 86 -188 217c0 147 93 260 213 260c100 0 175 -93 156 -230h-280c-21 -120 45 -177 115 -177c42 0 90 20 146 61zM140 292h188c0 57 -25 101 -81 101c-50 0 -84 -33 -107 -101zM362 639c25 0 46 -21 46 -46
s-21 -46 -46 -46s-46 21 -46 46s21 46 46 46zM183 639c25 0 46 -21 46 -46s-21 -46 -46 -46s-46 21 -46 46s21 46 46 46z" />
    <glyph glyph-name="egrave" unicode="&#xe8;" horiz-adv-x="438" 
d="M388 117l-12 -81c-45 -33 -96 -50 -150 -50c-114 0 -188 86 -188 217c0 147 93 260 213 260c100 0 175 -93 156 -230h-280c-21 -120 45 -177 115 -177c42 0 90 20 146 61zM140 292h188c0 57 -25 101 -81 101c-50 0 -84 -33 -107 -101zM254 670l68 -146h-56l-113 146h101z
" />
    <glyph glyph-name="iacute" unicode="&#xed;" horiz-adv-x="188" 
d="M171 449l-63 -449h-85l63 449h85zM154 670h101l-113 -146h-56z" />
    <glyph glyph-name="icircumflex" unicode="&#xee;" horiz-adv-x="188" 
d="M171 449l-63 -449h-85l63 449h85zM216 670l75 -148h-41l-83 99l-134 -99h-47l131 148h99z" />
    <glyph glyph-name="idieresis" unicode="&#xef;" horiz-adv-x="188" 
d="M171 449l-63 -449h-85l63 449h85zM237 639c25 0 46 -21 46 -46s-21 -46 -46 -46s-46 21 -46 46s21 46 46 46zM58 639c25 0 46 -21 46 -46s-21 -46 -46 -46s-46 21 -46 46s21 46 46 46z" />
    <glyph glyph-name="igrave" unicode="&#xec;" horiz-adv-x="188" 
d="M171 449l-63 -449h-85l63 449h85zM129 670l68 -146h-56l-113 146h101z" />
    <glyph glyph-name="ntilde" unicode="&#xf1;" 
d="M178 449l-11 -79l2 -2c49 60 99 88 149 88c95 0 119 -99 107 -173l-43 -283h-84l41 286c11 78 -23 100 -49 100c-24 0 -71 -17 -135 -100l-41 -286h-84l63 449h85zM396 652h39c0 -58 -28 -114 -82 -114c-28 0 -105 38 -138 38c-19 0 -32 -15 -34 -37h-40
c1 71 32 114 81 114c37 0 106 -38 140 -38c19 0 31 14 34 37z" />
    <glyph glyph-name="oacute" unicode="&#xf3;" horiz-adv-x="448" 
d="M418 267c0 -168 -95 -281 -213 -281c-106 0 -169 75 -169 201c0 157 93 276 215 276c102 0 167 -78 167 -196zM123 178c0 -72 35 -119 79 -119c71 0 129 89 129 213c0 75 -31 124 -80 124c-73 0 -128 -104 -128 -218zM284 670h101l-113 -146h-56z" />
    <glyph glyph-name="ocircumflex" unicode="&#xf4;" horiz-adv-x="448" 
d="M418 267c0 -168 -95 -281 -213 -281c-106 0 -169 75 -169 201c0 157 93 276 215 276c102 0 167 -78 167 -196zM123 178c0 -72 35 -119 79 -119c71 0 129 89 129 213c0 75 -31 124 -80 124c-73 0 -128 -104 -128 -218zM346 670l75 -148h-41l-83 99l-134 -99h-47l131 148
h99z" />
    <glyph glyph-name="odieresis" unicode="&#xf6;" horiz-adv-x="448" 
d="M418 267c0 -168 -95 -281 -213 -281c-106 0 -169 75 -169 201c0 157 93 276 215 276c102 0 167 -78 167 -196zM123 178c0 -72 35 -119 79 -119c71 0 129 89 129 213c0 75 -31 124 -80 124c-73 0 -128 -104 -128 -218zM367 639c25 0 46 -21 46 -46s-21 -46 -46 -46
s-46 21 -46 46s21 46 46 46zM188 639c25 0 46 -21 46 -46s-21 -46 -46 -46s-46 21 -46 46s21 46 46 46z" />
    <glyph glyph-name="ograve" unicode="&#xf2;" horiz-adv-x="448" 
d="M418 267c0 -168 -95 -281 -213 -281c-106 0 -169 75 -169 201c0 157 93 276 215 276c102 0 167 -78 167 -196zM123 178c0 -72 35 -119 79 -119c71 0 129 89 129 213c0 75 -31 124 -80 124c-73 0 -128 -104 -128 -218zM259 670l68 -146h-56l-113 146h101z" />
    <glyph glyph-name="otilde" unicode="&#xf5;" horiz-adv-x="448" 
d="M418 267c0 -168 -95 -281 -213 -281c-106 0 -169 75 -169 201c0 157 93 276 215 276c102 0 167 -78 167 -196zM123 178c0 -72 35 -119 79 -119c71 0 129 89 129 213c0 75 -31 124 -80 124c-73 0 -128 -104 -128 -218zM386 652h39c0 -58 -28 -114 -82 -114
c-28 0 -105 38 -138 38c-19 0 -32 -15 -34 -37h-40c1 71 32 114 81 114c37 0 106 -38 140 -38c19 0 31 14 34 37z" />
    <glyph glyph-name="scaron" unicode="&#x161;" horiz-adv-x="354" 
d="M323 416v-89c-51 39 -98 59 -135 59c-35 0 -61 -21 -61 -47c0 -64 179 -95 179 -219c0 -81 -60 -134 -139 -134c-56 0 -92 14 -156 59l15 82c59 -47 102 -67 138 -67c34 0 58 21 58 50c0 75 -176 102 -176 224c0 77 55 129 141 129c47 0 94 -18 136 -47zM164 522l-75 148
h41l83 -99l134 99h47l-131 -148h-99z" />
    <glyph glyph-name="uacute" unicode="&#xfa;" 
d="M436 449l-64 -449h-84l10 74l-2 2c-35 -37 -87 -83 -148 -83c-50 0 -123 36 -106 160l42 296h85l-42 -296c-11 -80 25 -95 48 -95c33 0 74 26 135 99l41 292h85zM294 670h101l-113 -146h-56z" />
    <glyph glyph-name="ucircumflex" unicode="&#xfb;" 
d="M436 449l-64 -449h-84l10 74l-2 2c-35 -37 -87 -83 -148 -83c-50 0 -123 36 -106 160l42 296h85l-42 -296c-11 -80 25 -95 48 -95c33 0 74 26 135 99l41 292h85zM356 670l75 -148h-41l-83 99l-134 -99h-47l131 148h99z" />
    <glyph glyph-name="udieresis" unicode="&#xfc;" 
d="M436 449l-64 -449h-84l10 74l-2 2c-35 -37 -87 -83 -148 -83c-50 0 -123 36 -106 160l42 296h85l-42 -296c-11 -80 25 -95 48 -95c33 0 74 26 135 99l41 292h85zM377 639c25 0 46 -21 46 -46s-21 -46 -46 -46s-46 21 -46 46s21 46 46 46zM198 639c25 0 46 -21 46 -46
s-21 -46 -46 -46s-46 21 -46 46s21 46 46 46z" />
    <glyph glyph-name="ugrave" unicode="&#xf9;" 
d="M436 449l-64 -449h-84l10 74l-2 2c-35 -37 -87 -83 -148 -83c-50 0 -123 36 -106 160l42 296h85l-42 -296c-11 -80 25 -95 48 -95c33 0 74 26 135 99l41 292h85zM269 670l68 -146h-56l-113 146h101z" />
    <glyph glyph-name="yacute" unicode="&#xfd;" horiz-adv-x="375" 
d="M400 449l-322 -679h-90l122 257l-87 422h85l60 -309h2l141 309h89zM247 670h101l-113 -146h-56z" />
    <glyph glyph-name="ydieresis" unicode="&#xff;" horiz-adv-x="375" 
d="M400 449l-322 -679h-90l122 257l-87 422h85l60 -309h2l141 309h89zM330 639c25 0 46 -21 46 -46s-21 -46 -46 -46s-46 21 -46 46s21 46 46 46zM151 639c25 0 46 -21 46 -46s-21 -46 -46 -46s-46 21 -46 46s21 46 46 46z" />
    <glyph glyph-name="zcaron" unicode="&#x17e;" horiz-adv-x="458" 
d="M447 449l-298 -374h261l-16 -75h-407l293 374h-227l10 75h384zM216 522l-75 148h41l83 -99l134 99h47l-131 -148h-99z" />
    <glyph glyph-name="one.superior" unicode="&#xb9;" horiz-adv-x="323" 
d="M265 691l-66 -359h-64l65 359h65z" />
    <glyph glyph-name="two.superior" unicode="&#xb2;" horiz-adv-x="323" 
d="M92 605l9 60c35 19 63 26 96 26c61 0 104 -35 104 -84s-36 -103 -155 -227h150l-7 -48h-259c138 143 209 233 209 267c0 26 -19 41 -52 41c-28 0 -57 -10 -95 -35z" />
    <glyph glyph-name="three.superior" unicode="&#xb3;" horiz-adv-x="323" 
d="M107 616l8 58c31 12 59 17 89 17c69 0 114 -37 114 -94c0 -37 -26 -66 -74 -83c33 -14 50 -42 50 -79c0 -62 -62 -108 -145 -108c-41 0 -75 10 -103 21l7 49c24 -10 52 -22 94 -22c50 0 81 24 81 63c0 35 -26 54 -75 54l7 45c59 6 87 26 87 61c0 27 -22 45 -55 45
c-29 0 -54 -8 -85 -27z" />
    <glyph glyph-name="Delta" unicode="&#x2206;" horiz-adv-x="609" 
d="M-3 0l7 55l319 636h98l136 -635l-8 -56h-552zM93 70h375l-77 344c-9 52 -30 134 -35 178h-3c-14 -36 -54 -110 -77 -163z" />
    <glyph glyph-name="Omega" unicode="&#x2126;" horiz-adv-x="669" 
d="M157 70v3c-55 60 -100 162 -82 293c26 185 164 319 327 319c171 0 253 -153 230 -314c-19 -136 -96 -242 -166 -298l-1 -3h138l-10 -70h-231l8 52c73 46 152 148 174 302c17 124 -28 259 -153 259c-119 0 -211 -115 -232 -262c-20 -143 29 -255 90 -299l-7 -52h-231
l10 70h136z" />
    <glyph glyph-name="uni03BC" unicode="&#x3bc;" horiz-adv-x="552" 
d="M135 449h85l-58 -276c-16 -78 17 -123 76 -123c73 0 111 47 127 124l57 275h85l-93 -449h-77l4 32c-16 -13 -20 -17 -34 -25c-10 -6 -32 -21 -76 -21c-41 0 -73 20 -97 54l-43 -213h-84z" />
    <glyph glyph-name="pi" unicode="&#x3c0;" horiz-adv-x="544" 
d="M548 430h-73l-40 -289c-11 -77 -10 -114 -7 -141h-82c-7 17 -8 60 3 135l41 295h-157c-22 -119 -79 -334 -127 -430h-83c50 107 105 307 126 430c-55 0 -82 -5 -102 -11l-4 57c26 16 70 27 144 27h379z" />
    <glyph glyph-name="Euro" unicode="&#x20ac;" horiz-adv-x="575" 
d="M224 440h282l-14 -72h-292c-4 -24 -5 -27 -8 -53h290l-14 -72h-276c4 -67 33 -166 139 -166c72 0 133 29 191 66l-13 -105c-37 -19 -107 -47 -185 -47c-75 0 -214 44 -226 252h-73l14 72h59c2 29 5 43 7 53h-67l14 72h74c70 185 236 251 375 251c39 0 72 -5 102 -10
l-16 -87c-26 5 -56 11 -93 11c-117 0 -220 -57 -270 -165z" />
    <glyph glyph-name="afii61289" unicode="&#x2113;" horiz-adv-x="463" 
d="M395 154l32 -36c-55 -84 -124 -123 -197 -123c-111 0 -144 81 -136 174c1 4 1 8 2 12c-18 -13 -39 -29 -59 -43l-17 48c31 24 59 44 85 67l37 259c24 173 107 234 184 234c82 0 110 -71 98 -160c-17 -119 -108 -233 -240 -348l-4 -36c-14 -98 25 -139 77 -139
c57 0 107 48 138 91zM223 514l-27 -193c88 86 160 178 172 266c8 58 -3 96 -49 96c-33 0 -78 -41 -96 -169z" />
    <glyph glyph-name="estimated" unicode="&#x212e;" horiz-adv-x="908" 
d="M875 331h-629c-3 0 -5 -1 -5 -4v-190c0 -9 3 -16 8 -22c61 -63 145 -104 238 -104c101 0 190 46 251 116h56c-70 -82 -183 -135 -308 -135c-214 0 -388 156 -388 349s174 349 388 349c216 0 389 -156 389 -349v-10zM733 356v192c0 8 -4 16 -10 22
c-61 60 -144 100 -236 100s-176 -41 -237 -103c-6 -6 -9 -14 -9 -24v-187c0 -2 2 -6 5 -6h482c4 0 5 4 5 6z" />
    <glyph glyph-name="partialdiff" unicode="&#x2202;" horiz-adv-x="521" 
d="M155 644l-18 63c34 25 89 54 168 54c126 0 227 -117 192 -365c-33 -234 -144 -401 -306 -401c-125 0 -168 115 -153 224c21 153 129 249 236 249c83 0 126 -58 137 -85h1c2 10 5 28 6 38c22 156 -37 269 -132 269c-58 0 -102 -25 -131 -46zM209 67h1
c83 0 153 116 182 235c-8 39 -45 97 -113 97c-74 0 -143 -83 -157 -181c-12 -87 21 -151 87 -151z" />
    <glyph glyph-name="product" unicode="&#x220f;" horiz-adv-x="725" 
d="M700 597h-100v-690h-84v690h-245v-690h-84v690h-100v77h613v-77z" />
    <glyph glyph-name="summation" unicode="&#x2211;" horiz-adv-x="583" 
d="M563 -93h-478v56l245 327l-235 324v60h453v-73h-338v-3l216 -294l-235 -313v-3h372v-81z" />
    <glyph glyph-name="uni2219" unicode="&#x2219;" horiz-adv-x="260" 
d="M151 406c33 0 60 -27 60 -60s-27 -61 -60 -61s-61 28 -61 61s28 60 61 60z" />
    <glyph glyph-name="radical" unicode="&#x221a;" horiz-adv-x="609" 
d="M611 804l-209 -945h-72l-147 441l-70 -27l-16 50l138 55l113 -343c6 -26 13 -54 17 -74l1 -1c3 20 8 49 13 77l171 767h61z" />
    <glyph glyph-name="infinity" unicode="&#x221e;" horiz-adv-x="765" 
d="M718 280v-1c0 -95 -71 -155 -147 -155c-59 0 -107 34 -173 112c-50 -59 -101 -112 -178 -112s-144 65 -144 151c0 90 64 154 151 154c71 0 124 -50 174 -111c47 52 95 112 176 111c83 0 141 -60 141 -149zM227 175h1c58 0 103 56 142 99c-42 52 -82 106 -148 106
c-59 0 -93 -48 -93 -106c0 -54 40 -99 98 -99zM572 380h-1c-62 0 -111 -68 -143 -101c61 -71 96 -104 146 -104c58 0 91 53 91 101c0 64 -39 104 -93 104z" />
    <glyph glyph-name="integral" unicode="&#x222b;" horiz-adv-x="415" 
d="M397 814l-12 -59c-9 5 -22 9 -34 9c-17 0 -36 -6 -48 -23c-23 -28 -30 -81 -30 -170c0 -153 13 -318 13 -480c0 -100 -17 -159 -39 -194c-22 -39 -62 -55 -102 -55c-26 0 -53 8 -64 15l13 62c8 -4 24 -11 42 -11c15 0 32 7 43 21c18 24 30 67 30 162
c0 164 -13 332 -13 488c0 108 14 168 52 208c25 27 61 40 95 40c21 0 43 -7 54 -13z" />
    <glyph glyph-name="approxequal" unicode="&#x2248;" horiz-adv-x="553" 
d="M478 419l33 -29c-26 -52 -66 -93 -123 -93c-38 0 -64 14 -109 40c-28 17 -54 32 -86 32c-43 0 -68 -34 -91 -70l-34 28c28 56 76 93 132 93c46 0 78 -24 104 -38c33 -18 54 -33 86 -33c38 0 62 26 88 70zM478 253l33 -29c-26 -51 -65 -92 -123 -92c-38 0 -64 14 -109 39
c-29 17 -55 32 -85 32c-44 0 -69 -34 -92 -70l-34 28c28 56 76 94 131 94c47 0 79 -24 104 -38c31 -17 55 -34 88 -34c38 0 61 26 87 70z" />
    <glyph glyph-name="notequal" unicode="&#x2260;" horiz-adv-x="565" 
d="M416 485l-40 -90h141v-53h-162l-61 -136h223v-53h-244l-49 -110l-42 18l41 92h-137v53h159l60 136h-219v53h240l48 108z" />
    <glyph glyph-name="lessequal" unicode="&#x2264;" horiz-adv-x="576" 
d="M526 95l-424 214v56l423 214v-63l-368 -177v-2l369 -179v-63zM529 2h-432v55h432v-55z" />
    <glyph glyph-name="greaterequal" unicode="&#x2265;" horiz-adv-x="576" 
d="M103 579l424 -214v-56l-424 -214v63l368 178v2l-368 178v63zM528 2h-430v55h430v-55z" />
    <glyph glyph-name="lozenge" unicode="&#x25ca;" horiz-adv-x="609" 
d="M559 337l-189 -381h-69l-185 381l189 381h68zM482 335l-126 257c-6 17 -14 39 -17 54h-3c-4 -16 -10 -35 -18 -54l-126 -253l127 -261c8 -19 14 -39 16 -51h4c3 13 11 38 17 50z" />
    <glyph glyph-name="uni00A0" unicode="&#xa0;" horiz-adv-x="278" 
 />
    <glyph glyph-name="uni00AD" unicode="&#xad;" horiz-adv-x="250" 
d="M250 265l-12 -85h-238l12 85h238z" />
    <glyph glyph-name="uni02C9" unicode="&#x2c9;" horiz-adv-x="333" 
d="M378 635l-9 -64h-322l9 64h322z" />
    <glyph glyph-name="uni2215" unicode="&#x2215;" horiz-adv-x="208" 
d="M410 691l-542 -718h-69l543 718h68z" />
    <glyph glyph-name="uni03A9" unicode="&#x3a9;" horiz-adv-x="669" 
d="M157 70v3c-55 60 -100 162 -82 293c26 185 164 319 327 319c171 0 253 -153 230 -314c-19 -136 -96 -242 -166 -298l-1 -3h138l-10 -70h-231l8 52c73 46 152 148 174 302c17 124 -28 259 -153 259c-119 0 -211 -115 -232 -262c-20 -143 29 -255 90 -299l-7 -52h-231
l10 70h136z" />
    </font>
</defs>
</svg>
